
<!-- Generator: visioncortex VTracer 0.6.4 -->
<svg version="1.1" xmlns="http://www.w3.org/2000/svg" viewBox="0 0 512 512" preserveAspectRatio="xMidYMid meet">
<path d="M0 0 C3.272 1.433 5.432 3.188 7.942 5.715 C8.703 6.476 9.463 7.237 10.247 8.02 C11.057 8.841 11.868 9.662 12.703 10.508 C13.541 11.348 14.379 12.189 15.242 13.055 C17.916 15.74 20.583 18.433 23.25 21.125 C25.062 22.947 26.875 24.769 28.688 26.59 C33.13 31.055 37.567 35.525 42 40 C45.336 38.424 47.43 36.751 49.969 34.051 C50.705 33.286 51.441 32.521 52.199 31.732 C53.739 30.113 55.273 28.488 56.801 26.857 C57.537 26.096 58.273 25.335 59.031 24.551 C59.697 23.846 60.363 23.141 61.049 22.415 C63 21 63 21 64.962 21.021 C69.678 23.286 73.162 27.652 76.812 31.312 C77.709 32.181 78.606 33.049 79.529 33.943 C80.372 34.783 81.214 35.623 82.082 36.488 C82.858 37.257 83.634 38.026 84.433 38.818 C86 41 86 41 85.997 43.011 C84.692 45.614 83.046 47.29 80.965 49.328 C80.156 50.127 79.347 50.927 78.514 51.75 C77.664 52.575 76.813 53.4 75.938 54.25 C74.656 55.511 74.656 55.511 73.35 56.797 C71.24 58.871 69.123 60.939 67 63 C68.453 66.343 70.278 68.515 72.862 71.069 C73.668 71.871 74.474 72.672 75.305 73.498 C76.19 74.369 77.076 75.239 77.989 76.136 C79.419 77.555 80.85 78.974 82.281 80.393 C83.819 81.917 85.359 83.438 86.9 84.959 C90.123 88.14 93.337 91.331 96.549 94.524 C105.684 103.601 114.828 112.669 123.988 121.721 C129.048 126.721 134.098 131.73 139.138 136.749 C141.801 139.399 144.467 142.044 147.146 144.678 C165.877 163.104 181.979 181.2 182.381 208.918 C182.344 229.202 178.143 246.064 164.597 261.567 C164.078 262.166 163.559 262.765 163.025 263.382 C156.945 270.317 150.464 276.845 143.941 283.359 C142.622 284.683 141.303 286.007 139.983 287.33 C137.241 290.08 134.495 292.826 131.747 295.569 C128.258 299.052 124.781 302.546 121.306 306.044 C118.593 308.772 115.872 311.494 113.149 314.213 C111.865 315.498 110.584 316.784 109.305 318.074 C90.629 336.88 70.989 351.205 43.5 351.5 C19.484 351.221 0.522 340.972 -16.098 324.098 C-16.817 323.375 -17.537 322.653 -18.279 321.908 C-20.545 319.631 -22.804 317.347 -25.062 315.062 C-26.611 313.504 -28.16 311.946 -29.709 310.389 C-33.478 306.598 -37.241 302.801 -41 299 C-46.961 303.942 -52.42 309.285 -57.883 314.769 C-58.859 315.746 -59.835 316.722 -60.812 317.698 C-63.444 320.329 -66.072 322.964 -68.701 325.599 C-71.455 328.36 -74.212 331.117 -76.969 333.875 C-82.18 339.09 -87.389 344.307 -92.597 349.525 C-98.53 355.469 -104.465 361.41 -110.401 367.351 C-122.604 379.564 -134.803 391.781 -147 404 C-152.995 399.032 -158.482 393.654 -163.974 388.139 C-164.96 387.153 -165.947 386.167 -166.933 385.181 C-169.592 382.522 -172.248 379.861 -174.903 377.199 C-177.685 374.41 -180.47 371.625 -183.255 368.839 C-188.519 363.571 -193.781 358.301 -199.042 353.03 C-205.036 347.025 -211.032 341.024 -217.028 335.022 C-229.355 322.685 -241.679 310.344 -254 298 C-252.511 294.537 -250.546 292.299 -247.887 289.647 C-247.026 288.783 -246.165 287.919 -245.278 287.029 C-244.322 286.08 -243.366 285.131 -242.41 284.183 C-241.404 283.178 -240.399 282.172 -239.394 281.166 C-236.667 278.439 -233.934 275.718 -231.2 272.998 C-228.343 270.153 -225.492 267.303 -222.64 264.453 C-217.24 259.059 -211.834 253.67 -206.427 248.283 C-200.271 242.149 -194.12 236.009 -187.97 229.869 C-175.32 217.24 -162.662 204.618 -150 192 C-151.345 189.213 -152.595 187.159 -154.797 184.976 C-155.358 184.415 -155.918 183.855 -156.496 183.278 C-157.098 182.686 -157.7 182.094 -158.32 181.484 C-158.939 180.869 -159.558 180.253 -160.195 179.618 C-162.167 177.657 -164.146 175.704 -166.125 173.75 C-167.465 172.42 -168.805 171.089 -170.145 169.758 C-173.424 166.5 -176.711 163.248 -180 160 C-176.816 156.233 -173.638 152.51 -170.133 149.035 C-169.147 148.054 -169.147 148.054 -168.141 147.053 C-167.475 146.396 -166.81 145.739 -166.125 145.062 C-165.437 144.379 -164.748 143.695 -164.039 142.99 C-162.362 141.324 -160.682 139.661 -159 138 C-155.258 139.56 -152.891 141.867 -150.048 144.725 C-149.569 145.203 -149.091 145.682 -148.598 146.174 C-147.024 147.749 -145.457 149.332 -143.891 150.914 C-142.798 152.01 -141.705 153.106 -140.612 154.201 C-137.74 157.08 -134.875 159.965 -132.011 162.852 C-129.085 165.798 -126.154 168.739 -123.223 171.68 C-117.476 177.448 -111.736 183.222 -106 189 C-100.597 184.438 -100.597 184.438 -95.473 179.57 C-94.909 179.003 -94.345 178.436 -93.764 177.852 C-93.202 177.282 -92.641 176.712 -92.062 176.125 C-91.474 175.532 -90.886 174.939 -90.279 174.328 C-88.851 172.888 -87.425 171.444 -86 170 C-90.238 164.934 -94.674 160.2 -99.375 155.562 C-100.336 154.608 -100.336 154.608 -101.316 153.635 C-102.875 152.087 -104.437 150.543 -106 149 C-101.589 143.721 -96.942 138.804 -92.067 133.953 C-91.295 133.182 -90.524 132.41 -89.729 131.615 C-87.199 129.086 -84.666 126.561 -82.133 124.035 C-80.37 122.274 -78.607 120.513 -76.845 118.752 C-72.221 114.131 -67.594 109.514 -62.967 104.898 C-58.239 100.181 -53.514 95.46 -48.789 90.74 C-39.529 81.491 -30.266 72.244 -21 63 C-19.876 63.958 -18.753 64.918 -17.63 65.877 C-17.004 66.411 -16.379 66.945 -15.734 67.495 C-13.832 69.145 -12.026 70.86 -10.254 72.648 C-9.645 73.261 -9.036 73.873 -8.408 74.504 C-7.799 75.121 -7.19 75.739 -6.562 76.375 C-5.926 77.016 -5.29 77.656 -4.635 78.316 C-3.087 79.875 -1.543 81.437 0 83 C4.891 78.932 9.474 74.656 13.938 70.125 C14.526 69.532 15.114 68.939 15.721 68.328 C17.149 66.888 18.575 65.444 20 64 C15.502 58.608 10.739 53.606 5.758 48.66 C4.605 47.51 4.605 47.51 3.429 46.336 C0.997 43.909 -1.439 41.486 -3.875 39.062 C-5.534 37.408 -7.193 35.754 -8.852 34.1 C-12.898 30.064 -16.948 26.031 -21 22 C-17.816 18.233 -14.638 14.51 -11.133 11.035 C-10.475 10.381 -9.818 9.727 -9.141 9.053 C-8.475 8.396 -7.81 7.739 -7.125 7.062 C-6.092 6.037 -6.092 6.037 -5.039 4.99 C-3.362 3.324 -1.682 1.661 0 0 Z M41.051 87.836 C40.218 88.674 39.385 89.512 38.527 90.375 C37.628 91.277 36.729 92.18 35.803 93.109 C34.848 94.073 33.893 95.036 32.938 96 C31.979 96.964 31.02 97.927 30.061 98.891 C27.705 101.258 25.351 103.628 23 106 C27.238 111.066 31.674 115.8 36.375 120.438 C37.016 121.074 37.656 121.71 38.316 122.365 C39.875 123.913 41.437 125.457 43 127 C38.616 132.245 34.003 137.135 29.159 141.955 C28.397 142.717 27.635 143.478 26.851 144.263 C24.353 146.76 21.852 149.253 19.352 151.746 C17.611 153.485 15.871 155.223 14.131 156.962 C9.566 161.523 4.999 166.081 0.43 170.638 C-4.237 175.296 -8.902 179.956 -13.566 184.615 C-22.708 193.746 -31.853 202.874 -41 212 C-42.124 211.042 -43.247 210.082 -44.37 209.123 C-44.996 208.589 -45.621 208.055 -46.266 207.505 C-48.168 205.855 -49.974 204.14 -51.746 202.352 C-52.355 201.739 -52.964 201.127 -53.592 200.496 C-54.201 199.879 -54.81 199.261 -55.438 198.625 C-56.074 197.984 -56.71 197.344 -57.365 196.684 C-58.913 195.125 -60.457 193.563 -62 192 C-67.066 196.238 -71.8 200.674 -76.438 205.375 C-77.074 206.016 -77.71 206.656 -78.365 207.316 C-79.913 208.875 -81.457 210.437 -83 212 C-77.199 219.105 -70.656 225.47 -64.164 231.934 C-62.917 233.179 -61.67 234.424 -60.423 235.67 C-57.161 238.929 -53.895 242.185 -50.629 245.44 C-47.288 248.77 -43.951 252.103 -40.613 255.436 C-34.078 261.96 -27.54 268.481 -21 275 C-17.315 271.882 -13.653 268.783 -10.254 265.352 C-9.645 264.739 -9.036 264.127 -8.408 263.496 C-7.799 262.879 -7.19 262.261 -6.562 261.625 C-5.926 260.984 -5.29 260.344 -4.635 259.684 C-3.087 258.125 -1.543 256.563 0 255 C-4.238 249.934 -8.674 245.2 -13.375 240.562 C-14.016 239.926 -14.656 239.29 -15.316 238.635 C-16.875 237.087 -18.437 235.543 -20 234 C-15.616 228.755 -11.003 223.865 -6.159 219.045 C-5.397 218.283 -4.635 217.522 -3.851 216.737 C-1.353 214.24 1.148 211.747 3.648 209.254 C5.389 207.515 7.129 205.777 8.869 204.038 C13.434 199.477 18.001 194.919 22.57 190.362 C27.237 185.704 31.902 181.044 36.566 176.385 C45.708 167.254 54.853 158.126 64 149 C65.124 149.958 66.247 150.918 67.37 151.877 C67.996 152.411 68.621 152.945 69.266 153.495 C71.168 155.145 72.974 156.86 74.746 158.648 C75.355 159.261 75.964 159.873 76.592 160.504 C77.201 161.121 77.81 161.739 78.438 162.375 C79.074 163.016 79.71 163.656 80.365 164.316 C81.913 165.875 83.457 167.437 85 169 C90.066 164.762 94.8 160.326 99.438 155.625 C100.074 154.984 100.71 154.344 101.365 153.684 C102.913 152.125 104.457 150.563 106 149 C100.201 141.905 93.677 135.532 87.199 129.066 C85.955 127.821 84.71 126.575 83.466 125.33 C80.871 122.734 78.274 120.139 75.677 117.546 C72.339 114.215 69.007 110.879 65.676 107.542 C63.113 104.976 60.549 102.412 57.983 99.85 C56.753 98.62 55.523 97.389 54.293 96.157 C52.584 94.445 50.872 92.737 49.159 91.03 C48.648 90.517 48.138 90.004 47.612 89.476 C44.528 85.682 44.528 85.682 41.051 87.836 Z M125.029 172.744 C123.851 173.938 123.851 173.938 122.648 175.156 C121.798 176.013 120.947 176.871 120.07 177.754 C118.736 179.113 118.736 179.113 117.375 180.5 C116.478 181.406 115.581 182.312 114.656 183.246 C112.433 185.493 110.215 187.744 108 190 C109.487 193.466 111.457 195.69 114.133 198.328 C114.938 199.127 115.744 199.927 116.574 200.75 C117.416 201.575 118.258 202.4 119.125 203.25 C119.974 204.09 120.824 204.931 121.699 205.797 C123.795 207.869 125.895 209.937 128 212 C123.616 217.245 119.003 222.135 114.159 226.955 C113.397 227.717 112.635 228.478 111.851 229.263 C109.353 231.76 106.852 234.253 104.352 236.746 C102.611 238.485 100.871 240.223 99.131 241.962 C94.566 246.523 89.999 251.081 85.43 255.638 C80.763 260.296 76.098 264.956 71.434 269.615 C62.292 278.746 53.147 287.874 44 297 C42.876 296.042 41.753 295.082 40.63 294.123 C40.004 293.589 39.379 293.055 38.734 292.505 C36.832 290.855 35.026 289.14 33.254 287.352 C32.645 286.739 32.036 286.127 31.408 285.496 C30.799 284.879 30.19 284.261 29.562 283.625 C28.926 282.984 28.29 282.344 27.635 281.684 C26.087 280.125 24.543 278.563 23 277 C19.637 278.457 17.455 280.311 14.891 282.914 C13.759 284.055 13.759 284.055 12.605 285.219 C11.828 286.013 11.051 286.807 10.25 287.625 C9.457 288.427 8.664 289.229 7.848 290.055 C5.894 292.032 3.945 294.014 2 296 C6.926 306.477 17.993 314.267 28.562 318.375 C39.882 321.807 52.34 321.295 63 316 C69.138 312.277 74.361 308.089 79.428 303.023 C80.111 302.353 80.793 301.682 81.497 300.99 C83.727 298.793 85.946 296.585 88.164 294.375 C89.726 292.825 91.288 291.275 92.851 289.726 C96.116 286.483 99.374 283.234 102.629 279.982 C106.775 275.841 110.944 271.723 115.12 267.611 C118.352 264.419 121.569 261.212 124.781 258 C126.31 256.476 127.845 254.958 129.386 253.446 C141.56 241.48 151.137 230.419 151.375 212.562 C151.431 195.087 142.727 184.544 130.883 172.617 C128.239 170.346 127.635 170.438 125.029 172.744 Z " fill="#FFFFFF" transform="translate(330,16)"/>
<path d="M0 0 C4.518 3.792 8.855 7.697 13.043 11.85 C13.602 12.401 14.16 12.951 14.736 13.518 C16.556 15.314 18.372 17.113 20.188 18.914 C21.123 19.842 21.123 19.842 22.077 20.788 C25.367 24.051 28.653 27.317 31.936 30.586 C34.653 33.289 37.377 35.985 40.107 38.675 C43.413 41.932 46.708 45.201 49.993 48.48 C51.246 49.726 52.502 50.967 53.764 52.204 C55.518 53.928 57.257 55.666 58.992 57.409 C59.781 58.172 59.781 58.172 60.585 58.952 C62.003 60.395 62.003 60.395 64 63 C63.924 66.186 63.086 66.909 60.855 69.254 C59.975 70.016 59.095 70.778 58.188 71.562 C57.315 72.327 56.442 73.091 55.543 73.879 C54.704 74.579 53.865 75.279 53 76 C52.408 76.496 51.816 76.992 51.206 77.503 C48.599 79.272 46.168 80.113 43.165 81.065 C41.99 81.443 40.815 81.821 39.604 82.21 C38.979 82.407 38.354 82.604 37.71 82.807 C35.738 83.43 33.771 84.065 31.805 84.704 C26.215 86.517 20.621 88.317 15.019 90.092 C11.585 91.18 8.158 92.289 4.734 93.409 C2.811 94.032 0.882 94.634 -1.048 95.235 C-8.5 97.683 -13.583 100.344 -19 106 C-20.373 107.336 -21.747 108.672 -23.121 110.008 C-24.562 111.449 -26.001 112.893 -27.438 114.34 C-28.586 115.49 -28.586 115.49 -29.757 116.664 C-32.174 119.086 -34.587 121.512 -37 123.938 C-38.65 125.592 -40.299 127.246 -41.949 128.9 C-45.969 132.931 -49.986 136.964 -54 141 C-59.404 138.434 -63.1 134.308 -67.312 130.125 C-68.161 129.309 -69.01 128.493 -69.885 127.652 C-71.081 126.467 -71.081 126.467 -72.301 125.258 C-73.035 124.537 -73.769 123.817 -74.525 123.075 C-76 121 -76 121 -75.808 119.066 C-74.812 116.519 -73.684 115.568 -71.548 113.874 C-70.814 113.274 -70.08 112.675 -69.325 112.057 C-68.521 111.403 -67.718 110.748 -66.891 110.074 C-40.832 87.753 -29.291 68.366 -20.669 35.608 C-19.971 32.984 -19.265 30.363 -18.555 27.742 C-18.22 26.504 -17.885 25.265 -17.54 23.989 C-14.335 13.194 -8.999 6.584 0 0 Z " fill="#FFFFFF" transform="translate(76,355)"/>
</svg>